<svg xmlns="http://www.w3.org/2000/svg" width="38.463" height="35.432" viewBox="0 0 38.463 35.432">
  <path id="Icon_awesome-hotel" data-name="Icon awesome-hotel" d="M37.394,4.429a1.088,1.088,0,0,0,1.068-1.107V1.107A1.088,1.088,0,0,0,37.394,0H1.068A1.088,1.088,0,0,0,0,1.107V3.322A1.088,1.088,0,0,0,1.068,4.429H2.135V31H1.068A1.088,1.088,0,0,0,0,32.11v2.214a1.088,1.088,0,0,0,1.068,1.107H17.095V29.9a1.092,1.092,0,0,1,1.068-1.107H20.3A1.092,1.092,0,0,1,21.368,29.9v5.536H37.394a1.088,1.088,0,0,0,1.068-1.107V32.11A1.088,1.088,0,0,0,37.394,31H36.326V4.429Zm-20.3,3.1a.936.936,0,0,1,.855-.886h2.564a.936.936,0,0,1,.855.886v2.657a.936.936,0,0,1-.855.886H17.949a.936.936,0,0,1-.855-.886V7.529Zm0,6.643a.936.936,0,0,1,.855-.886h2.564a.936.936,0,0,1,.855.886V16.83a.936.936,0,0,1-.855.886H17.949a.936.936,0,0,1-.855-.886ZM8.547,7.529A.936.936,0,0,1,9.4,6.643h2.564a.936.936,0,0,1,.855.886v2.657a.936.936,0,0,1-.855.886H9.4a.936.936,0,0,1-.855-.886Zm3.419,10.187H9.4a.936.936,0,0,1-.855-.886V14.173a.936.936,0,0,1,.855-.886h2.564a.936.936,0,0,1,.855.886V16.83A.936.936,0,0,1,11.966,17.716Zm.855,8.858a6.53,6.53,0,0,1,6.41-6.643,6.53,6.53,0,0,1,6.41,6.643ZM29.915,16.83a.936.936,0,0,1-.855.886H26.5a.936.936,0,0,1-.855-.886V14.173a.936.936,0,0,1,.855-.886h2.564a.936.936,0,0,1,.855.886Zm0-6.643a.936.936,0,0,1-.855.886H26.5a.936.936,0,0,1-.855-.886V7.529a.936.936,0,0,1,.855-.886h2.564a.936.936,0,0,1,.855.886Z" fill="#004610"/>
</svg>
