<svg xmlns="http://www.w3.org/2000/svg" width="24.507" height="24.499" viewBox="0 0 24.507 24.499">
  <g id="Icon_ionic-ios-home" data-name="Icon ionic-ios-home" transform="translate(-3.374 -3.375)">
    <path id="Path_69" data-name="Path 69" d="M16.32,7.309a.231.231,0,0,0-.294,0l-9.187,7.35a.247.247,0,0,0-.088.183V28.387a.118.118,0,0,0,.118.118h6.36a.118.118,0,0,0,.118-.118V20.142a.118.118,0,0,1,.118-.118h5.418a.118.118,0,0,1,.118.118v8.245a.118.118,0,0,0,.118.118h6.36a.118.118,0,0,0,.118-.118V14.842a.238.238,0,0,0-.088-.183Z" transform="translate(-0.548 -0.63)" fill="#85fd80"/>
    <path id="Path_70" data-name="Path 70" d="M27.562,12.574,16.431,3.658a1.293,1.293,0,0,0-1.614,0L9.971,7.6V5.112a.118.118,0,0,0-.118-.118H6.319a.118.118,0,0,0-.118.118v5.43L3.687,12.609a.824.824,0,0,0-.071,1.231.819.819,0,0,0,.583.241.83.83,0,0,0,.518-.183l10.83-8.716a.105.105,0,0,1,.077-.024.143.143,0,0,1,.077.024l10.83,8.681a.83.83,0,0,0,.518.183.836.836,0,0,0,.83-.872A.837.837,0,0,0,27.562,12.574Z" transform="translate(0)" fill="#85fd80"/>
  </g>
</svg>
