<svg xmlns="http://www.w3.org/2000/svg" width="32.688" height="32.688" viewBox="0 0 32.688 32.688">
  <path id="Icon_ionic-md-call" data-name="Icon ionic-md-call" d="M35.372,27.2a21.314,21.314,0,0,1-6.446-1,1.7,1.7,0,0,0-1.816.454l-4,3.995A27.309,27.309,0,0,1,11.128,18.664l4-3.995a1.892,1.892,0,0,0,.454-1.816,19.75,19.75,0,0,1-1.09-6.538A1.821,1.821,0,0,0,12.672,4.5H6.316A1.821,1.821,0,0,0,4.5,6.316,30.846,30.846,0,0,0,35.372,37.188a1.822,1.822,0,0,0,1.816-1.816V29.016A1.822,1.822,0,0,0,35.372,27.2Z" transform="translate(-4.5 -4.5)" fill="#85fd80"/>
</svg>
