<svg xmlns="http://www.w3.org/2000/svg" width="41.175" height="24.714" viewBox="0 0 41.175 24.714">
  <path id="Icon_awesome-handshake" data-name="Icon awesome-handshake" d="M27.967,4.5H22.44a2.058,2.058,0,0,0-1.39.54l-6.324,5.79c-.006.006-.013.019-.019.026a2.559,2.559,0,0,0-.135,3.6,2.683,2.683,0,0,0,3.609.174c.006-.006.019-.006.026-.013l5.14-4.709a1.029,1.029,0,0,1,1.39,1.518l-1.679,1.538,9.367,7.6a4.635,4.635,0,0,1,.508.5V8.617L29.421,5.1a2.044,2.044,0,0,0-1.454-.6ZM35,8.63v14.4a2.057,2.057,0,0,0,2.059,2.059h4.117V8.63Zm3.088,14.4a1.029,1.029,0,1,1,1.029-1.029A1.032,1.032,0,0,1,38.087,23.035ZM0,25.087H4.117a2.057,2.057,0,0,0,2.059-2.059V8.63H0Zm3.088-4.111a1.029,1.029,0,1,1-1.029,1.029A1.032,1.032,0,0,1,3.088,20.976Zm28.044,1.2-9.605-7.8L19.6,16.145a4.631,4.631,0,0,1-6.26-6.826L18.6,4.5H13.208a2.055,2.055,0,0,0-1.454.6L8.235,8.617v14.4H9.412l5.822,5.269a4.117,4.117,0,0,0,5.79-.6l.013-.013,1.152,1a2.391,2.391,0,0,0,3.365-.347l2.02-2.483.347.283a2.056,2.056,0,0,0,2.9-.3l.611-.753a2.062,2.062,0,0,0-.3-2.9Z" transform="translate(0 -4.5)" fill="#85fd80"/>
</svg>
