<svg xmlns="http://www.w3.org/2000/svg" width="45.269" height="39.683" viewBox="0 0 45.269 39.683">
  <path id="Icon_map-food" data-name="Icon map-food" d="M45.889,13.417,42.178,42.507H29.643l-3.7-29.236h15.3L44.274,2.825l1.715.517-2.9,10.053,2.8.022ZM24.175,30.247s.469-3.772-6.031-3.772H7.792c-6.49,0-6.031,3.772-6.031,3.772ZM1.761,38.735S1.3,42.507,7.792,42.507H18.145c6.5,0,6.031-3.772,6.031-3.772ZM23.2,36.849a2.169,2.169,0,0,0,1.923-2.357A2.166,2.166,0,0,0,23.2,32.133H2.644A2.17,2.17,0,0,0,.72,34.492a2.173,2.173,0,0,0,1.924,2.357H23.2Z" transform="translate(-0.72 -2.825)" fill="#004610"/>
</svg>
