<svg xmlns="http://www.w3.org/2000/svg" width="34" height="39" viewBox="0 0 34 39">
  <path id="Icon_material-directions-transit" data-name="Icon material-directions-transit" d="M23,3C13.608,3,6,4.026,6,11.211v19.5a7.322,7.322,0,0,0,7.438,7.184L10.25,40.974V42h25.5V40.974l-3.188-3.079A7.322,7.322,0,0,0,40,30.711v-19.5C40,4.026,32.393,3,23,3ZM13.438,33.789a3.081,3.081,0,1,1,3.188-3.079A3.13,3.13,0,0,1,13.438,33.789Zm7.438-12.316H10.25V11.211H20.875ZM32.563,33.789a3.081,3.081,0,1,1,3.188-3.079A3.13,3.13,0,0,1,32.563,33.789ZM35.75,21.474H25.125V11.211H35.75Z" transform="translate(-6 -3)" fill="#004610"/>
</svg>
