<svg xmlns="http://www.w3.org/2000/svg" width="52.559" height="52.559" viewBox="0 0 52.559 52.559">
  <g id="money-bag_9140970" transform="translate(0.5 0.5)">
    <g id="Group_34" data-name="Group 34" transform="translate(11.812 -0.5)">
      <path id="Path_31" data-name="Path 31" d="M122.626-.5h11.7a4.24,4.24,0,0,1,3.131,3.182q.077,1.693.051,3.388H133.4V3.606H123.55V6.07h-4.106q-.026-1.695.051-3.388A4.24,4.24,0,0,1,122.626-.5Z" transform="translate(-119.437 0.5)" fill="#008b02" fill-rule="evenodd" opacity="0.991"/>
    </g>
    <g id="Group_35" data-name="Group 35" transform="translate(-0.5 7.706)">
      <path id="Path_32" data-name="Path 32" d="M-.5,109.111V82.626A4.24,4.24,0,0,1,2.682,79.5q1.693-.077,3.388-.051v32.849q-1.695.026-3.388-.051A4.24,4.24,0,0,1-.5,109.111Z" transform="translate(0.5 -79.438)" fill="#008b02" fill-rule="evenodd" opacity="0.996"/>
    </g>
    <g id="Group_36" data-name="Group 36" transform="translate(7.712 7.712)">
      <path id="Path_33" data-name="Path 33" d="M79.5,79.5h1.642v32.849H79.5Z" transform="translate(-79.5 -79.5)" fill="#008b02" fill-rule="evenodd"/>
    </g>
    <g id="Group_37" data-name="Group 37" transform="translate(10.997 7.712)">
      <path id="Path_34" data-name="Path 34" d="M111.5,79.5h19.709v32.849H111.5Zm9.547,8.315a.826.826,0,0,1,1.078.719,6.258,6.258,0,0,1,.051,1.129A3.824,3.824,0,0,1,125.769,93q-.012,1.194-1.129.821l-.257-.257a2.285,2.285,0,0,0-2.1-2.361,21.63,21.63,0,0,0,0,4.209,8.712,8.712,0,0,1,2.926,1.848q1.672,3.3-1.8,4.671-.612.158-1.232.257a2.936,2.936,0,0,1-.308,1.694.817.817,0,0,1-1.181-.257,4.193,4.193,0,0,1-.154-1.437,3.824,3.824,0,0,1-3.593-3.336q.012-1.194,1.129-.821l.257.257a2.285,2.285,0,0,0,2.1,2.361,21.626,21.626,0,0,0,0-4.209,8.712,8.712,0,0,1-2.926-1.848q-1.672-3.3,1.8-4.671.612-.158,1.232-.257a3.341,3.341,0,0,1,.257-1.642A.984.984,0,0,0,121.047,87.815Z" transform="translate(-111.5 -79.5)" fill="#008b02" fill-rule="evenodd" opacity="0.994"/>
    </g>
    <g id="Group_38" data-name="Group 38" transform="translate(32.336 7.712)">
      <path id="Path_35" data-name="Path 35" d="M319.388,79.5h1.642v22.173a4.465,4.465,0,0,0-1.54.205Q319.337,90.69,319.388,79.5Z" transform="translate(-319.375 -79.5)" fill="#008b02" fill-rule="evenodd" opacity="0.997"/>
    </g>
    <g id="Group_39" data-name="Group 39" transform="translate(35.628 7.706)">
      <path id="Path_36" data-name="Path 36" d="M351.444,79.444q1.695-.026,3.388.051a4.078,4.078,0,0,1,3.131,3.131q.077,7.648.051,15.3a2.311,2.311,0,0,0-1.335.359,15.007,15.007,0,0,1-5.184,2.926Q351.418,90.325,351.444,79.444Z" transform="translate(-351.437 -79.438)" fill="#008b02" fill-rule="evenodd" opacity="0.993"/>
    </g>
    <g id="Group_40" data-name="Group 40" transform="translate(17.958 19.415)">
      <path id="Path_37" data-name="Path 37" d="M180.97,193.5h.411a31.537,31.537,0,0,1-.1,3.593,5.721,5.721,0,0,1-1.8-1.232,1.418,1.418,0,0,1,.667-2A4.528,4.528,0,0,1,180.97,193.5Z" transform="translate(-179.307 -193.5)" fill="#008b02" fill-rule="evenodd" opacity="0.933"/>
    </g>
    <g id="Group_41" data-name="Group 41" transform="translate(21.673 25.266)">
      <path id="Path_38" data-name="Path 38" d="M215.5,250.5a5.117,5.117,0,0,1,1.9,1.232,1.581,1.581,0,0,1-1.078,2.207,3.494,3.494,0,0,1-.821.154Z" transform="translate(-215.5 -250.5)" fill="#008b02" fill-rule="evenodd" opacity="0.933"/>
    </g>
    <g id="Group_42" data-name="Group 42" transform="translate(32.344 27.73)">
      <path id="Path_39" data-name="Path 39" d="M339.163,278.709v9.136a13.17,13.17,0,0,1-9.341,10.984H328.8a13.084,13.084,0,0,1-9.29-10.881q-.152-4.735.1-9.444a1.468,1.468,0,0,1,.667-.257,15.273,15.273,0,0,0,8.418-3.593,1.309,1.309,0,0,1,1.232,0,15.95,15.95,0,0,0,8.828,3.7A.718.718,0,0,1,339.163,278.709Zm-9.957-1.129a38.57,38.57,0,0,0,4.106,2.1q1.47.524,2.977.924a.79.79,0,0,1,.359.667,46.04,46.04,0,0,1-.205,6.98,10.451,10.451,0,0,1-6.211,7.648,1.792,1.792,0,0,1-1.848,0,10.45,10.45,0,0,1-6.21-7.648,46.036,46.036,0,0,1-.205-6.98C321.976,280.99,327.126,279.029,329.206,277.58Z" transform="translate(-319.449 -274.5)" fill="#008b02" fill-rule="evenodd" opacity="0.961"/>
    </g>
    <g id="Group_43" data-name="Group 43" transform="translate(36.449 32.554)">
      <path id="Path_40" data-name="Path 40" d="M365.09,321.5q1.4.78,2.874,1.489a16.83,16.83,0,0,0,2.977.975q.026,2.926-.051,5.851a8.922,8.922,0,0,1-5.7,6.98,8.922,8.922,0,0,1-5.7-6.98q-.077-2.925-.051-5.851A16.255,16.255,0,0,0,365.09,321.5Zm2.258,4.825q-1.453,1.376-2.874,2.823a.128.128,0,0,1-.205,0,3.67,3.67,0,0,0-1.54-1.181q-.96.172-.667,1.129l1.9,1.9a.624.624,0,0,0,.821,0l3.542-3.542Q368.578,326.246,367.348,326.325Z" transform="translate(-359.437 -321.5)" fill="#008b02" fill-rule="evenodd" opacity="0.973"/>
    </g>
  </g>
</svg>
