<svg xmlns="http://www.w3.org/2000/svg" width="48.82" height="42.917" viewBox="0 0 48.82 42.917">
  <g id="three_10088885" transform="translate(0.5 -31.438)">
    <g id="Group_44" data-name="Group 44" transform="translate(16.745 31.438)">
      <path id="Path_41" data-name="Path 41" d="M187.043,31.444a4.81,4.81,0,0,1,.954.048.665.665,0,0,1,.334.238q.715,1.93,1.287,3.909,2.048.119,4.1.143a1.193,1.193,0,0,1,.62,1.859q-1.7,1.215-3.29,2.527.678,1.939,1.24,3.909-.269,1.518-1.716.954-1.514-1.174-3.1-2.241-1.68,1.115-3.29,2.336a1.207,1.207,0,0,1-1.621-1.049q.566-1.84,1.192-3.671a.405.405,0,0,0,0-.381q-1.661-1.137-3.242-2.384a1.276,1.276,0,0,1,.524-1.764l4.2-.1q.682-2.046,1.478-4.052A2.877,2.877,0,0,1,187.043,31.444Z" transform="translate(-180.355 -31.438)" fill="#008b02" fill-rule="evenodd" opacity="0.97"/>
    </g>
    <g id="Group_45" data-name="Group 45" transform="translate(3.683 36.957)">
      <path id="Path_42" data-name="Path 42" d="M48.529,89.33a1.338,1.338,0,0,1,1.192.381q.543,1.366,1,2.765,1.428.119,2.861.143a1.184,1.184,0,0,1,.715,1.764q-1.1.96-2.288,1.812a.405.405,0,0,0,0,.381q.434,1.255.81,2.527-.273,1.519-1.716.954l-2.145-1.573q-1.153.851-2.336,1.669-1.614.245-1.478-1.383l.81-2.431q-1.189-.991-2.431-1.955a1.184,1.184,0,0,1,.715-1.764l2.765-.1q.48-1.3.906-2.622A1.217,1.217,0,0,1,48.529,89.33Z" transform="translate(-43.368 -89.312)" fill="#008b02" fill-rule="evenodd" opacity="0.965"/>
    </g>
    <g id="Group_46" data-name="Group 46" transform="translate(32.893 36.944)">
      <path id="Path_43" data-name="Path 43" d="M354.927,89.21a1.222,1.222,0,0,1,1.287.477,28.088,28.088,0,0,1,.906,2.765q1.431-.024,2.861.048a1.151,1.151,0,0,1,.715,1.764q-1.1.96-2.288,1.812a17.438,17.438,0,0,0,.572,2.479q.207,1.7-1.478,1.478-1.124-.862-2.288-1.669-1.164.807-2.288,1.669-1.685.222-1.478-1.478.391-1.2.81-2.384-1.155-.923-2.336-1.812a1.2,1.2,0,0,1,.62-1.859l2.861-.1q.482-1.421,1.049-2.813Q354.695,89.393,354.927,89.21Z" transform="translate(-349.702 -89.18)" fill="#008b02" fill-rule="evenodd" opacity="0.964"/>
    </g>
    <g id="Group_47" data-name="Group 47" transform="translate(-0.5 47.175)">
      <path id="Path_44" data-name="Path 44" d="M48.32,201.337v17.449a2.223,2.223,0,0,1-1.43,1.287l-9.058.1a27.621,27.621,0,0,1-13.921,3.48,27.621,27.621,0,0,1-13.921-3.48l-9.058-.1A2.223,2.223,0,0,1-.5,218.787V201.337a2.093,2.093,0,0,1,1.526-1.287l9.058-.1a24.967,24.967,0,0,1,9.249-3.147,30.647,30.647,0,0,1,15.828,1.812,16.447,16.447,0,0,1,2.575,1.335l9.154.1A2.225,2.225,0,0,1,48.32,201.337Zm-26.794.381a34.957,34.957,0,0,1,10.489,1,23.665,23.665,0,0,1,2.765.953q4.3,0,8.582.191a.733.733,0,0,1,.334.62q.1,5.483,0,10.965a.794.794,0,0,1-.429.715l-8.2.1a28.692,28.692,0,0,1-11.061,2.05,30.433,30.433,0,0,1-11.156-2.05q-4.256,0-8.486-.191a1.363,1.363,0,0,1-.238-.62q-.1-5.483,0-10.965a.733.733,0,0,1,.334-.62q4.234-.187,8.486-.191A27.816,27.816,0,0,1,21.526,201.719Zm-2.1,4.577C21.139,206.338,18.247,206.339,19.429,206.3Z" transform="translate(0.5 -196.472)" fill="#008b02" fill-rule="evenodd" opacity="0.984"/>
    </g>
    <g id="Group_48" data-name="Group 48" transform="translate(5.603 53.717)">
      <path id="Path_45" data-name="Path 45" d="M79.9,265.123a32.279,32.279,0,0,1,10.107,1.1,20.818,20.818,0,0,1,2.574.953q3.766.072,7.533.048v9.726q-3.719-.024-7.437.048a24.89,24.89,0,0,1-10.775,2.05,26.3,26.3,0,0,1-10.87-2.05q-3.766-.072-7.533-.048v-9.726q3.814.024,7.628-.048a20.267,20.267,0,0,1,3.909-1.335A39.546,39.546,0,0,1,79.9,265.123Zm-2.575,3.242a3.443,3.443,0,0,0-2.813,1.526,4.906,4.906,0,0,0-.381,3.337,2.843,2.843,0,0,0,2.241,2.336,4.221,4.221,0,0,0,2.861-.477,4.274,4.274,0,0,0,1.192-4.148A2.948,2.948,0,0,0,77.326,268.365Zm-9.631.191a1.874,1.874,0,0,1-.334.191q-.1,3.337,0,6.675a1.133,1.133,0,0,0,1.24,0q.072-1.429.048-2.861h2.765q-.024,1.431.048,2.861a1.321,1.321,0,0,0,1.192.1q.024-3.433-.048-6.865a2.184,2.184,0,0,0-1.192,0v2.765H68.649q.024-1.383-.048-2.765A2.339,2.339,0,0,0,67.7,268.556Zm19.643,0a.411.411,0,0,1-.143.191q-.1,3.29,0,6.579l.143.143q1.907.1,3.814,0a1.74,1.74,0,0,0-.1-1.335q-1.286-.072-2.575-.048v-2q1.1.024,2.193-.048a1.9,1.9,0,0,0,.1-.81H88.482v-1.812q1.336.024,2.67-.048a.74.74,0,0,0,0-.715Q89.247,268.508,87.338,268.556Zm5.626,0a.44.44,0,0,1-.381.1q-.069,3.35.143,6.675a34.06,34.06,0,0,0,3.576.1v-.954H94.013q.024-2.861-.048-5.721A1.655,1.655,0,0,0,92.964,268.556Zm-12.014.1a.816.816,0,0,0,0,.763,9.619,9.619,0,0,0,1.907.1q-.048,2.91.1,5.816a2.3,2.3,0,0,0,1.24,0v-5.816q.955.024,1.907-.048a.74.74,0,0,0,0-.715Q83.526,268.6,80.949,268.651Z" transform="translate(-63.5 -265.083)" fill="#008b02" fill-rule="evenodd" opacity="0.969"/>
    </g>
    <g id="Group_49" data-name="Group 49" transform="translate(17.435 58.118)">
      <path id="Path_46" data-name="Path 46" d="M189.2,311.264a1.731,1.731,0,0,1,2.05,1.24,4.869,4.869,0,0,1-.286,3.147,2.045,2.045,0,0,1-2.145.62,1.294,1.294,0,0,1-.906-.715,4.636,4.636,0,0,1-.1-3.147A2.064,2.064,0,0,1,189.2,311.264Z" transform="translate(-187.591 -311.239)" fill="#008b02" fill-rule="evenodd" opacity="0.947"/>
    </g>
  </g>
</svg>
