<svg xmlns="http://www.w3.org/2000/svg" width="41.5" height="42.299" viewBox="0 0 41.5 42.299">
  <g id="worldwide_3044525" transform="translate(-23.5 -23.5)">
    <g id="Group_50" data-name="Group 50" transform="translate(35.217 23.5)">
      <path id="Path_47" data-name="Path 47" d="M162.55,23.5h.268V34.948a19.1,19.1,0,0,1-8.318-2.1,19.008,19.008,0,0,1,4.114-7.155A8.608,8.608,0,0,1,162.55,23.5Z" transform="translate(-154.5 -23.5)" fill="#008b02" fill-rule="evenodd" opacity="0.982"/>
    </g>
    <g id="Group_51" data-name="Group 51" transform="translate(44.966 23.5)">
      <path id="Path_48" data-name="Path 48" d="M263.5,23.5a8.159,8.159,0,0,1,4.785,2.862,20.5,20.5,0,0,1,3.443,6.35.441.441,0,0,1-.089.224,19.073,19.073,0,0,1-8.139,2.012Z" transform="translate(-263.5 -23.5)" fill="#008b02" fill-rule="evenodd" opacity="0.982"/>
    </g>
    <g id="Group_52" data-name="Group 52" transform="translate(30.029 24.121)">
      <path id="Path_49" data-name="Path 49" d="M105.265,30.448a.754.754,0,0,1,.358.045,15.3,15.3,0,0,0-3.265,4.07q-1.019,1.947-1.878,3.935a16.617,16.617,0,0,1-3.98-3.086A21.287,21.287,0,0,1,105.265,30.448Z" transform="translate(-96.5 -30.443)" fill="#008b02" fill-rule="evenodd" opacity="0.944"/>
    </g>
    <g id="Group_53" data-name="Group 53" transform="translate(49.438 24.216)">
      <path id="Path_50" data-name="Path 50" d="M313.5,31.5a18.66,18.66,0,0,1,9.034,4.875,14.7,14.7,0,0,1-4.025,3.041,23.55,23.55,0,0,0-3.712-6.663Q314.166,32.1,313.5,31.5Z" transform="translate(-313.5 -31.5)" fill="#008b02" fill-rule="evenodd" opacity="0.945"/>
    </g>
    <g id="Group_54" data-name="Group 54" transform="translate(23.5 30.029)">
      <path id="Path_51" data-name="Path 51" d="M29.045,96.5a24.792,24.792,0,0,0,4.472,3.4l.089.224a36.337,36.337,0,0,0-1.431,9.883H23.5A20.635,20.635,0,0,1,29.045,96.5Z" transform="translate(-23.5 -96.5)" fill="#008b02" fill-rule="evenodd" opacity="0.983"/>
    </g>
    <g id="Group_55" data-name="Group 55" transform="translate(44.96 30.029)">
      <path id="Path_52" data-name="Path 52" d="M277.843,96.5a20.114,20.114,0,0,1,5.635,13.506h-2.147v1.431h2.147a20.377,20.377,0,0,1-5.59,13.506,28.655,28.655,0,0,0-4.517-3.578q.541-1.878.894-3.8a.563.563,0,0,0-.089-.268,8.769,8.769,0,0,1-1.118-.224q-.444,1.822-.85,3.667-1.8-.713-3.667-1.3a34.707,34.707,0,0,0-4.2-.8l3.846-3.846-.939-.939-3.757,3.757q-.067-3.085-.045-6.171h2.862v-1.431h-2.862v-7.245a20.282,20.282,0,0,0,8.631-2.147,6.63,6.63,0,0,1,.492,1.789,10.747,10.747,0,0,0-1.342-.313,9.341,9.341,0,0,0-1.923,1.834.827.827,0,0,0,0,.537q1.3,1.276,2.549,2.594a7.591,7.591,0,0,0-.626.76l-4.472.089a.764.764,0,0,0-.313.939l2.1,2.1a7.715,7.715,0,0,0-.85,1.118.86.86,0,0,0,.089.537l1.655,1.655a2.588,2.588,0,0,1,.358.134,3.27,3.27,0,0,0,1.163-.85.112.112,0,0,1,.179,0l2.057,2.057a.764.764,0,0,0,.939-.313q.045-2.236.089-4.472.348-.275.671-.581a.112.112,0,0,1,.179,0l2.5,2.5a.92.92,0,0,0,.716-.089l1.476-1.476a3.651,3.651,0,0,0,.224-.492q-.609-1.781-1.163-3.578l.045-.224a5.187,5.187,0,0,0,1.521-1.7q.629-3.171-2.549-3.757a3.518,3.518,0,0,0-1.521.492,11.561,11.561,0,0,0-1.163,1.252,1.766,1.766,0,0,1-.984-.179q-.433-1.439-.8-2.907l.089-.179A20.231,20.231,0,0,0,277.843,96.5Z" transform="translate(-263.437 -96.5)" fill="#008b02" fill-rule="evenodd" opacity="0.969"/>
    </g>
    <g id="Group_56" data-name="Group 56" transform="translate(33.517 34.143)">
      <path id="Path_53" data-name="Path 53" d="M136.752,142.5a21.571,21.571,0,0,0,8.765,2.147v7.245H135.5A37.358,37.358,0,0,1,136.752,142.5Z" transform="translate(-135.5 -142.5)" fill="#008b02" fill-rule="evenodd" opacity="0.988"/>
    </g>
    <g id="Group_57" data-name="Group 57" transform="translate(50.779 36.339)">
      <path id="Path_54" data-name="Path 54" d="M336.639,167.089a1.49,1.49,0,0,1,1.744.8,2.241,2.241,0,0,1-.179,1.431l-9.123,7.692-.581-.581,7.468-8.9A4.35,4.35,0,0,1,336.639,167.089Z" transform="translate(-328.5 -167.049)" fill="#008b02" fill-rule="evenodd" opacity="0.933"/>
    </g>
    <g id="Group_58" data-name="Group 58" transform="translate(52.389 37.006)">
      <path id="Path_55" data-name="Path 55" d="M347.126,174.5q1.315.394,2.594.894-.652.763-1.252,1.565a.223.223,0,0,1-.268,0l-1.655-1.655a.112.112,0,0,1,0-.179A5.689,5.689,0,0,0,347.126,174.5Z" transform="translate(-346.5 -174.5)" fill="#008b02" fill-rule="evenodd" opacity="0.87"/>
    </g>
    <g id="Group_59" data-name="Group 59" transform="translate(57.577 41.478)">
      <path id="Path_56" data-name="Path 56" d="M406.02,224.5a.38.38,0,0,1,.224.268A21.343,21.343,0,0,0,407,227a4.061,4.061,0,0,1-.715.716,17.292,17.292,0,0,1-1.789-1.833A12.862,12.862,0,0,1,406.02,224.5Z" transform="translate(-404.5 -224.5)" fill="#008b02" fill-rule="evenodd" opacity="0.867"/>
    </g>
    <g id="Group_60" data-name="Group 60" transform="translate(50.243 42.731)">
      <path id="Path_57" data-name="Path 57" d="M322.5,238.6a2.27,2.27,0,0,1,1.252,0,5.748,5.748,0,0,1-.581.626A6.577,6.577,0,0,0,322.5,238.6Z" transform="translate(-322.5 -238.516)" fill="#008b02" fill-rule="evenodd" opacity="0.765"/>
    </g>
    <g id="Group_61" data-name="Group 61" transform="translate(23.5 44.966)">
      <path id="Path_58" data-name="Path 58" d="M23.5,263.5h8.676a36.337,36.337,0,0,0,1.431,9.883l-.089.224a22.2,22.2,0,0,0-4.427,3.4A20.377,20.377,0,0,1,23.5,263.5Z" transform="translate(-23.5 -263.5)" fill="#008b02" fill-rule="evenodd" opacity="0.983"/>
    </g>
    <g id="Group_62" data-name="Group 62" transform="translate(33.517 44.966)">
      <path id="Path_59" data-name="Path 59" d="M135.5,263.5h10.017v7.245a20.7,20.7,0,0,0-8.676,2.147A32.721,32.721,0,0,1,135.5,263.5Z" transform="translate(-135.499 -263.5)" fill="#008b02" fill-rule="evenodd" opacity="0.988"/>
    </g>
    <g id="Group_63" data-name="Group 63" transform="translate(53.642 45.592)">
      <path id="Path_60" data-name="Path 60" d="M361.037,270.5a1.1,1.1,0,0,1,.179.626l-.045.626a7.584,7.584,0,0,1-.671-.716A2.3,2.3,0,0,0,361.037,270.5Z" transform="translate(-360.5 -270.5)" fill="#008b02" fill-rule="evenodd" opacity="0.758"/>
    </g>
    <g id="Group_64" data-name="Group 64" transform="translate(35.217 53.552)">
      <path id="Path_61" data-name="Path 61" d="M161.655,359.5q.138.053.045.179-2.774,2.8-5.59,5.545a21.847,21.847,0,0,1-1.61-3.622A21.038,21.038,0,0,1,161.655,359.5Z" transform="translate(-154.5 -359.5)" fill="#008b02" fill-rule="evenodd" opacity="0.942"/>
    </g>
    <g id="Group_65" data-name="Group 65" transform="translate(44.966 53.552)">
      <path id="Path_62" data-name="Path 62" d="M263.5,359.5a19.074,19.074,0,0,1,8.139,2.012,16.345,16.345,0,0,1-4.383,7.6,7.431,7.431,0,0,1-3.757,1.834Z" transform="translate(-263.5 -359.5)" fill="#008b02" fill-rule="evenodd" opacity="0.981"/>
    </g>
    <g id="Group_66" data-name="Group 66" transform="translate(37.542 54.536)">
      <path id="Path_63" data-name="Path 63" d="M186.4,370.5q.134,5.209.089,10.465a7.271,7.271,0,0,1-3.13-1.3,13.168,13.168,0,0,1-2.862-3.175Z" transform="translate(-180.5 -370.5)" fill="#008b02" fill-rule="evenodd" opacity="0.976"/>
    </g>
    <g id="Group_67" data-name="Group 67" transform="translate(30.029 56.319)">
      <path id="Path_64" data-name="Path 64" d="M100.346,390.441a.277.277,0,0,1,.268.089,30.926,30.926,0,0,0,1.7,3.8,16.028,16.028,0,0,1-2.012,2.012,18.542,18.542,0,0,1-3.8-2.817A21.033,21.033,0,0,1,100.346,390.441Z" transform="translate(-96.5 -390.435)" fill="#008b02" fill-rule="evenodd" opacity="0.948"/>
    </g>
    <g id="Group_68" data-name="Group 68" transform="translate(49.348 56.325)">
      <path id="Path_65" data-name="Path 65" d="M317.509,390.5a15.119,15.119,0,0,1,4.114,3.086A19,19,0,0,1,312.5,398.5,18.05,18.05,0,0,0,317.509,390.5Z" transform="translate(-312.5 -390.5)" fill="#008b02" fill-rule="evenodd" opacity="0.945"/>
    </g>
    <g id="Group_69" data-name="Group 69" transform="translate(29.103 61.423)">
      <path id="Path_66" data-name="Path 66" d="M87.251,447.5a6.323,6.323,0,0,1,1.252.939,5.1,5.1,0,0,1-.76.85q-.23,1.156.939,1.029l1.207-1.029a12.993,12.993,0,0,1,1.252.716,6.088,6.088,0,0,1-1.476,1.565,2.658,2.658,0,0,1-2.773-.179,2.4,2.4,0,0,1-.671-2.37A3.53,3.53,0,0,1,87.251,447.5Z" transform="translate(-86.146 -447.5)" fill="#008b02" fill-rule="evenodd" opacity="0.91"/>
    </g>
    <g id="Group_70" data-name="Group 70" transform="translate(35.127 61.423)">
      <path id="Path_67" data-name="Path 67" d="M154.931,447.5q.622.735,1.207,1.52l1.386,1.386a12.617,12.617,0,0,1-4.025-1.431Q154.243,448.255,154.931,447.5Z" transform="translate(-153.5 -447.5)" fill="#008b02" fill-rule="evenodd" opacity="0.867"/>
    </g>
  </g>
</svg>
